<svg xmlns="http://www.w3.org/2000/svg" width="20.991" height="14.188" viewBox="0 0 20.991 14.188"><defs><style>.a{fill:#444c6c;}</style></defs><path class="a" d="M18.948,253.7v-3.412A1.947,1.947,0,0,0,16.86,248.2H4.063a1.936,1.936,0,0,0-2.088,2.088V253.7A2.138,2.138,0,0,0,0,256.034v2.649a.8.8,0,0,0,.808.808h.269v2.088a.805.805,0,0,0,.808.808h.763a.805.805,0,0,0,.808-.808v-2.11H17.533v2.11a.805.805,0,0,0,.808.808H19.1a.805.805,0,0,0,.808-.808v-2.11h.269a.8.8,0,0,0,.808-.808v-2.627a2.231,2.231,0,0,0-2.043-2.335ZM2.739,250.287h.045a1.148,1.148,0,0,1,1.28-1.28h12.8a1.148,1.148,0,0,1,1.279,1.28v3.39h-.606v-1.93a.8.8,0,0,0-.808-.808H11.786a.8.8,0,0,0-.808.808v1.93h-.943v-1.93a.8.8,0,0,0-.808-.808H4.288a.8.8,0,0,0-.808.808v1.93H2.739Zm13.986,1.459v1.93H11.786v-1.93Zm-7.453,0v1.93H4.333v-1.93Zm-6.645,9.833H1.863v-2.11h.764Zm16.433,0H18.3v-2.11h.763Zm1.055-2.9H.786v-1.19H20.115Zm0-2H.786v-.651a1.411,1.411,0,0,1,1.549-1.549H18.566a1.4,1.4,0,0,1,1.549,1.549Zm0,0" transform="translate(0 -248.199)"/></svg>