<svg xmlns="http://www.w3.org/2000/svg" width="22" height="21.993" viewBox="0 0 22 21.993"><defs><style>.a{fill:#398be4;}</style></defs><path class="a" d="M11.6,14.205a.687.687,0,0,0,.972.972l4.06-4.167-4.06-4.167a.687.687,0,1,0-.972.972L14.087,10.3H.847a.687.687,0,0,0,0,1.375H14.129L11.6,14.2ZM20.785,0H8.414A1.375,1.375,0,0,0,7.039,1.375V7.56H8.423V2.213a.832.832,0,0,1,.832-.832H19.922a.831.831,0,0,1,.832.832l.022,17.575a.832.832,0,0,1-.832.832H9.255a.832.832,0,0,1-.832-.832V14.411l-1.384,0v6.206a1.375,1.375,0,0,0,1.375,1.375H20.785a1.375,1.375,0,0,0,1.375-1.375V1.375A1.375,1.375,0,0,0,20.785,0Z" transform="translate(-0.16)"/></svg>