<svg xmlns="http://www.w3.org/2000/svg" width="17.954" height="11.221" viewBox="0 0 17.954 11.221"><defs><style>.a{fill:#9196b2;}</style></defs><g transform="translate(0)"><path class="a" d="M66.9,239.857h-.351v-1.578a1.4,1.4,0,0,0-2.14-1.193A1.4,1.4,0,0,0,63.045,236h0a1.4,1.4,0,0,0-1.4,1.4v2.455H56.312V237.4a1.4,1.4,0,0,0-2.77-.316,1.4,1.4,0,0,0-2.14,1.193v1.578h-.351A1.053,1.053,0,0,0,50,240.909v1.4a1.053,1.053,0,0,0,1.052,1.052H51.4v1.578a1.4,1.4,0,0,0,2.14,1.193,1.4,1.4,0,0,0,1.367,1.087h0a1.4,1.4,0,0,0,1.4-1.4v-2.455h5.329v2.455a1.4,1.4,0,0,0,2.77.316,1.4,1.4,0,0,0,2.14-1.193v-1.578H66.9a1.053,1.053,0,0,0,1.052-1.052v-1.4a1.053,1.053,0,0,0-1.052-1.052Zm-15.5,2.805h-.351a.351.351,0,0,1-.351-.351v-1.4a.351.351,0,0,1,.351-.351H51.4Zm2.1,2.279a.7.7,0,1,1-1.4,0v-6.663a.7.7,0,0,1,1.4,0Zm2.1.877a.7.7,0,0,1-.7.7h0a.7.7,0,0,1-.7-.7V237.4a.7.7,0,0,1,1.4,0Zm6.029-4.559H59.188a.351.351,0,1,0,0,.7H61.64v.7H56.311v-2.1H61.64Zm2.106,4.559a.7.7,0,0,1-1.4,0v-4.19a.21.21,0,0,1,0,.023v-.081a.21.21,0,0,1,0,.023V237.4a.7.7,0,0,1,.7-.7h0a.7.7,0,0,1,.7.7Zm2.1-.877a.7.7,0,1,1-1.4,0v-6.663a.7.7,0,0,1,1.4,0Zm1.4-2.63a.351.351,0,0,1-.351.351h-.351v-2.1H66.9a.351.351,0,0,1,.351.351Zm0,0" transform="translate(-50 -236)"/><path class="a" d="M262.367,386.7a.351.351,0,1,1,0-.7h0a.351.351,0,0,1,0,.7Zm0,0" transform="translate(-254.581 -380.74)"/></g></svg>