<svg xmlns="http://www.w3.org/2000/svg" width="20" height="24" viewBox="0 0 20 24"><defs><style>.a{fill:#293440;}</style></defs><g transform="translate(-48)"><g transform="translate(48)"><path class="a" d="M67.231,3H64.923V.75A.76.76,0,0,0,64.154,0H50.308A2.282,2.282,0,0,0,48,2.25V21a3.042,3.042,0,0,0,3.077,3H67.231A.76.76,0,0,0,68,23.25V3.75A.76.76,0,0,0,67.231,3ZM50.308,1.5H63.385V3H50.308a.762.762,0,0,1-.769-.75A.762.762,0,0,1,50.308,1.5Zm16.154,21H51.077A1.52,1.52,0,0,1,49.538,21V4.362a2.334,2.334,0,0,0,.769.138H66.462Z" transform="translate(-48)"/></g><g transform="translate(55.692 9)"><path class="a" d="M210.308,192a2.251,2.251,0,1,0,2.308,2.25A2.282,2.282,0,0,0,210.308,192Zm0,3a.75.75,0,1,1,.769-.75A.762.762,0,0,1,210.308,195Z" transform="translate(-208 -192)"/></g><g transform="translate(52.615 6)"><path class="a" d="M149.385,128A5.324,5.324,0,0,0,144,133.25c0,2.7,4.32,7.467,4.812,8a.782.782,0,0,0,1.145,0c.492-.534,4.812-5.305,4.812-8A5.324,5.324,0,0,0,149.385,128Zm0,11.605c-1.68-1.943-3.846-4.923-3.846-6.356a3.847,3.847,0,0,1,7.692,0C153.231,134.679,151.065,137.663,149.385,139.605Z" transform="translate(-144 -128)"/></g></g></svg>