<svg xmlns="http://www.w3.org/2000/svg" width="33.194" height="40.373" viewBox="0 0 33.194 40.373"><defs><style>.a{fill:#fff;}</style></defs><g transform="translate(-1030 -210)"><path class="a" d="M1551.424,480c1.263-1.627-8.443.174-8.7-.184a5.512,5.512,0,0,0-2.817-1.779s.831-3.281.084-3.645c-.931-.454-3.3,4.054-3.59,4.054s-2.43-.2-2.913.483a27.235,27.235,0,0,1-2.72,3.3c-.777.677-5.437,2.523-6.99,5.047-1.244,2.021-.129,3.068.908,2.933.181-.026.39.4.39.4.874,1.022,3.261-1.252,3.261-1.252a2.36,2.36,0,0,1,2.527-.141c1.132.656,7.09,1.554,9.42,0,2.5.34,6.687,7.651,10.664,15.124h-30.709V471.157h33.194v22.195c-3.278-4.692-6.6-9.32-7.409-9.842C1548.015,482.176,1550.4,481.315,1551.424,480Z" transform="translate(-490.238 -261.157)"/><path class="a" d="M4.976-18.084a2.96,2.96,0,0,1-1.482.377,2.025,2.025,0,0,1-1.533-.611,2.242,2.242,0,0,1-.585-1.617,2.3,2.3,0,0,1,.65-1.687,2.215,2.215,0,0,1,1.647-.659,2.8,2.8,0,0,1,1.213.235v.574a2.33,2.33,0,0,0-1.272-.34A1.589,1.589,0,0,0,2.4-21.3a1.874,1.874,0,0,0-.475,1.327,1.875,1.875,0,0,0,.441,1.32,1.547,1.547,0,0,0,1.2.48,1.85,1.85,0,0,0,.9-.207v-1.241H3.488v-.469H4.976ZM6.2-21.745a.321.321,0,0,1-.232-.093.313.313,0,0,1-.1-.235.318.318,0,0,1,.1-.236A.318.318,0,0,1,6.2-22.4a.327.327,0,0,1,.236.094.315.315,0,0,1,.1.236.313.313,0,0,1-.1.231A.324.324,0,0,1,6.2-21.745Zm.247,3.963H5.936v-3.161h.506ZM9.115-20.43a.619.619,0,0,0-.383-.1.646.646,0,0,0-.542.306,1.413,1.413,0,0,0-.218.833v1.611H7.467v-3.161h.506v.651h.012a1.1,1.1,0,0,1,.33-.52.753.753,0,0,1,.5-.187.826.826,0,0,1,.3.043Zm2.812,2.648h-.506v-.494h-.012a1.06,1.06,0,0,1-.972.568,1.039,1.039,0,0,1-.739-.25.866.866,0,0,1-.267-.664q0-.886,1.043-1.031l.948-.133q0-.806-.651-.806a1.556,1.556,0,0,0-1.031.389v-.519a1.959,1.959,0,0,1,1.074-.3q1.114,0,1.114,1.179Zm-.506-1.6-.762.1a1.238,1.238,0,0,0-.531.174.5.5,0,0,0-.179.443.482.482,0,0,0,.165.378.638.638,0,0,0,.44.147.812.812,0,0,0,.622-.264.943.943,0,0,0,.245-.668Zm3.022-2.636a.674.674,0,0,0-.336-.083q-.531,0-.531.67v.488h.741v.432h-.741v2.729h-.5v-2.729h-.54v-.432h.54v-.512a1.065,1.065,0,0,1,.287-.786.969.969,0,0,1,.716-.289.992.992,0,0,1,.367.056Zm1.979,0a.674.674,0,0,0-.336-.083q-.531,0-.531.67v.488h.741v.432h-.741v2.729h-.5v-2.729h-.54v-.432h.54v-.512a1.065,1.065,0,0,1,.287-.786.969.969,0,0,1,.716-.289.992.992,0,0,1,.367.056Zm2.957,2.781H17.147a1.182,1.182,0,0,0,.284.815.979.979,0,0,0,.747.287,1.553,1.553,0,0,0,.982-.352v.475a1.834,1.834,0,0,1-1.1.3A1.336,1.336,0,0,1,17-18.139a1.762,1.762,0,0,1-.383-1.212,1.728,1.728,0,0,1,.418-1.2,1.341,1.341,0,0,1,1.039-.465,1.188,1.188,0,0,1,.96.4,1.673,1.673,0,0,1,.34,1.114Zm-.519-.429a1.03,1.03,0,0,0-.211-.682.72.72,0,0,0-.579-.244.818.818,0,0,0-.608.256,1.163,1.163,0,0,0-.309.67Zm4.679,1.883h-.519V-19.8H20.73v2.019h-.519v-4.426h.519v1.942h2.29v-1.942h.519Zm2.414.074a1.466,1.466,0,0,1-1.119-.443,1.641,1.641,0,0,1-.418-1.174,1.709,1.709,0,0,1,.435-1.244,1.565,1.565,0,0,1,1.176-.448,1.418,1.418,0,0,1,1.1.435,1.726,1.726,0,0,1,.4,1.207,1.7,1.7,0,0,1-.428,1.212A1.5,1.5,0,0,1,25.953-17.708Zm.037-2.883a.963.963,0,0,0-.772.332,1.363,1.363,0,0,0-.284.915,1.289,1.289,0,0,0,.287.886.976.976,0,0,0,.769.324.925.925,0,0,0,.755-.318,1.38,1.38,0,0,0,.264-.9,1.4,1.4,0,0,0-.264-.914A.921.921,0,0,0,25.99-20.591ZM29.8-17.813a.976.976,0,0,1-.472.1q-.83,0-.83-.926v-1.871h-.543v-.432H28.5v-.772l.506-.164v.935h.8v.432h-.8v1.781a.738.738,0,0,0,.108.454.431.431,0,0,0,.358.136.532.532,0,0,0,.33-.1Zm3.216-1.423H30.787a1.182,1.182,0,0,0,.284.815.979.979,0,0,0,.747.287,1.553,1.553,0,0,0,.982-.352v.475a1.834,1.834,0,0,1-1.1.3,1.336,1.336,0,0,1-1.053-.431,1.762,1.762,0,0,1-.383-1.212,1.728,1.728,0,0,1,.418-1.2,1.341,1.341,0,0,1,1.039-.465,1.188,1.188,0,0,1,.96.4,1.673,1.673,0,0,1,.34,1.114Zm-.519-.429a1.03,1.03,0,0,0-.211-.682.72.72,0,0,0-.579-.244.818.818,0,0,0-.608.256,1.163,1.163,0,0,0-.309.67Zm1.79,1.883h-.506v-4.679h.506Z" transform="translate(1028.904 268.081)"/></g></svg>