<svg xmlns="http://www.w3.org/2000/svg" width="16.869" height="16.869" viewBox="0 0 16.869 16.869"><defs><style>.a{fill:#444c6c;}</style></defs><g transform="translate(-27 -189)"><path class="a" d="M43.452,192.432a.421.421,0,0,0,.418-.413v-2.6a.416.416,0,0,0-.418-.418h-2.6a.416.416,0,0,0-.413.418v.906H30.432v-.906a.421.421,0,0,0-.413-.418h-2.6a.422.422,0,0,0-.418.418v2.6a.416.416,0,0,0,.418.413h.906v10.006h-.906a.421.421,0,0,0-.418.413v2.6a.422.422,0,0,0,.418.418h2.6a.416.416,0,0,0,.413-.418v-.906H40.437v.906a.421.421,0,0,0,.413.418h2.6a.422.422,0,0,0,.418-.418v-2.6a.416.416,0,0,0-.418-.413h-.906V192.432ZM27.827,191.6v-1.778H29.6V191.6ZM29.6,205.042H27.827v-1.778H29.6Zm10.833-2.191v.868H30.432v-.868a.415.415,0,0,0-.413-.413H29.15V192.432h.868a.415.415,0,0,0,.413-.413v-.868H40.437v.868a.415.415,0,0,0,.413.413h.868v10.006h-.868a.415.415,0,0,0-.413.413Zm2.6.413v1.778H41.264v-1.778ZM41.264,191.6v-1.778h1.778V191.6Zm0,0"/></g></svg>