<svg xmlns="http://www.w3.org/2000/svg" width="13.664" height="13.664" viewBox="0 0 13.664 13.664"><defs><style>.a{fill:#9196b2;stroke:rgba(0,0,0,0);}</style></defs><path class="a" d="M110.513,22.14l-.994-.994a3.037,3.037,0,0,0-.864-.6,3.235,3.235,0,0,0,.294-1.346V17.82a.2.2,0,0,0-.2-.2H107.37a3.234,3.234,0,0,0-1.346.294,3.037,3.037,0,0,0-.6-.864l-.994-.994a.2.2,0,0,0-.287,0l-.994.994a3.037,3.037,0,0,0-.6.864,3.235,3.235,0,0,0-1.346-.294H99.82a.2.2,0,0,0-.2.2V19.2a3.235,3.235,0,0,0,.294,1.346,3.037,3.037,0,0,0-.864.6l-.994.994a.2.2,0,0,0,0,.287l.994.994a3.037,3.037,0,0,0,.864.6,3.234,3.234,0,0,0-.294,1.346v1.377a.2.2,0,0,0,.2.2H101.2a3.235,3.235,0,0,0,1.346-.294,3.037,3.037,0,0,0,.6.864l.994.994a.2.2,0,0,0,.287,0l.994-.994a3.038,3.038,0,0,0,.6-.864,3.235,3.235,0,0,0,1.346.294h1.377a.2.2,0,0,0,.2-.2V25.37a3.235,3.235,0,0,0-.294-1.346,3.037,3.037,0,0,0,.864-.6l.994-.994A.2.2,0,0,0,110.513,22.14Zm-3.144-4.117h1.174V19.2a2.828,2.828,0,0,1-.266,1.2,3.047,3.047,0,0,0-.91-.139h-.081a3.031,3.031,0,0,0-1.238.264,3.032,3.032,0,0,0,.264-1.238V19.2a3.048,3.048,0,0,0-.139-.91A2.828,2.828,0,0,1,107.37,18.023Zm-1.463,7.263v.081a2.648,2.648,0,0,1-.1.709,2.865,2.865,0,0,1-.446-.365l-.043-.043a2.823,2.823,0,0,1-.832-2.009v-.886l.648.648A2.621,2.621,0,0,1,105.906,25.286Zm-3.246.081v-.081a2.62,2.62,0,0,1,.773-1.865l.648-.648v.887a2.823,2.823,0,0,1-.832,2.009l-.043.043a2.864,2.864,0,0,1-.446.365A2.648,2.648,0,0,1,102.66,25.367Zm0-6.087V19.2a2.647,2.647,0,0,1,.1-.709,2.863,2.863,0,0,1,.446.365l.043.043a2.823,2.823,0,0,1,.832,2.009v.887l-.648-.648A2.621,2.621,0,0,1,102.66,19.281Zm3.246-.081v.081a2.621,2.621,0,0,1-.773,1.865l-.648.648v-.887a2.823,2.823,0,0,1,.832-2.009l.043-.043a2.863,2.863,0,0,1,.446-.365,2.647,2.647,0,0,1,.1.71Zm-2.113,2.881h-.887a2.823,2.823,0,0,1-2.009-.832l-.043-.043a2.864,2.864,0,0,1-.365-.446,2.648,2.648,0,0,1,.71-.1h.081a2.62,2.62,0,0,1,1.865.773Zm0,.406-.648.648a2.62,2.62,0,0,1-1.865.773H101.2a2.649,2.649,0,0,1-.709-.1,2.864,2.864,0,0,1,.365-.446l.043-.043a2.823,2.823,0,0,1,2.009-.832Zm.98,0h.887a2.823,2.823,0,0,1,2.009.832l.043.043a2.863,2.863,0,0,1,.365.446,2.648,2.648,0,0,1-.71.1h-.081a2.621,2.621,0,0,1-1.865-.773Zm0-.406.648-.648a2.62,2.62,0,0,1,1.865-.773h.081a2.647,2.647,0,0,1,.709.1,2.865,2.865,0,0,1-.365.446l-.043.043a2.823,2.823,0,0,1-2.009.832Zm-1.34-4.746.851-.85.85.85a2.631,2.631,0,0,1,.532.77,3.258,3.258,0,0,0-.591.464l-.043.043a3.232,3.232,0,0,0-.748,1.172,3.233,3.233,0,0,0-.748-1.171l-.043-.043a3.259,3.259,0,0,0-.592-.464A2.631,2.631,0,0,1,103.433,17.334Zm-3.41,1.863V18.023H101.2a2.828,2.828,0,0,1,1.2.266,3.047,3.047,0,0,0-.139.91v.081a3.031,3.031,0,0,0,.264,1.238,3.031,3.031,0,0,0-1.238-.264H101.2a3.047,3.047,0,0,0-.91.139A2.828,2.828,0,0,1,100.023,19.2Zm-.689,3.937-.85-.85.85-.85a2.631,2.631,0,0,1,.77-.532,3.259,3.259,0,0,0,.464.591l.043.043a3.233,3.233,0,0,0,1.172.748,3.233,3.233,0,0,0-1.171.748l-.043.043a3.258,3.258,0,0,0-.464.592A2.632,2.632,0,0,1,99.334,23.134Zm1.863,3.41h-1.174V25.37a2.828,2.828,0,0,1,.266-1.2,3.048,3.048,0,0,0,.91.139h.081a3.031,3.031,0,0,0,1.238-.264,3.031,3.031,0,0,0-.264,1.238v.081a3.047,3.047,0,0,0,.139.91A2.828,2.828,0,0,1,101.2,26.544Zm3.937.689-.85.85-.851-.85a2.632,2.632,0,0,1-.532-.769,3.262,3.262,0,0,0,.591-.465l.043-.043a3.233,3.233,0,0,0,.748-1.172,3.233,3.233,0,0,0,.748,1.171l.043.043a3.259,3.259,0,0,0,.592.465A2.632,2.632,0,0,1,105.134,27.233Zm3.41-1.863v1.174H107.37a2.828,2.828,0,0,1-1.2-.266,3.048,3.048,0,0,0,.139-.91v-.081a3.031,3.031,0,0,0-.264-1.238,3.031,3.031,0,0,0,1.238.264h.081a3.048,3.048,0,0,0,.91-.139A2.828,2.828,0,0,1,108.544,25.37Zm.689-2.236a2.632,2.632,0,0,1-.769.532,3.258,3.258,0,0,0-.465-.591l-.043-.043a3.233,3.233,0,0,0-1.172-.748,3.233,3.233,0,0,0,1.171-.748l.043-.043a3.26,3.26,0,0,0,.465-.592,2.631,2.631,0,0,1,.769.532l.851.85Z" transform="translate(-97.451 -15.451)"/></svg>