<svg xmlns="http://www.w3.org/2000/svg" width="12.569" height="11.902" viewBox="0 0 12.569 11.902"><defs><style>.a{fill:#9196b2;}</style></defs><g transform="translate(0)"><path class="a" d="M374.688,234.339a.226.226,0,0,0-.319,0l-2.34,2.34a.226.226,0,1,0,.319.319l2.34-2.34a.225.225,0,0,0,0-.319Zm0,0" transform="translate(-363.519 -233.616)"/><path class="a" d="M394.133,253.477a.226.226,0,0,0-.319,0l-2.34,2.34a.226.226,0,0,0,.319.319l2.34-2.34a.226.226,0,0,0,0-.319Zm0,0" transform="translate(-382.327 -252.127)"/><path class="a" d="M143.294,278.927l2.905-2.905a.226.226,0,0,0-.319-.319l-2.9,2.905a1.2,1.2,0,0,1-1.362.234.226.226,0,0,0-.266.054l-.987,1.112h0l-4.266,4.807,0,0c-.014.017-.027.031-.041.044a.722.722,0,1,1-1.021-1.022c.013-.013.028-.026.044-.041l0,0,2.667-2.367a.226.226,0,1,0-.3-.337l-2.665,2.366c-.025.022-.048.043-.07.064a1.174,1.174,0,0,0,1.66,1.66c.022-.022.043-.044.064-.07l3.251-3.663,3.251,3.663c.022.025.042.048.064.07a1.174,1.174,0,0,0,1.66-1.66c-.022-.022-.044-.043-.07-.064l-3.741-3.32.732-.825a1.651,1.651,0,0,0,1.716-.388Zm1,4.872,0,0c.016.014.031.027.044.041a.722.722,0,1,1-1.022,1.021c-.013-.013-.027-.028-.041-.044l0,0-3.289-3.7.563-.635Zm0,0" transform="translate(-133.696 -273.625)"/><path class="a" d="M124.492,214.255a.226.226,0,0,0-.319,0l-2.9,2.905a1.651,1.651,0,0,0-.388,1.716l-.894.794-.859-.763a2.27,2.27,0,0,0-.423-2.641,5.139,5.139,0,0,0-2.283-1.387,1.778,1.778,0,0,0-2.328,2.328,5.139,5.139,0,0,0,1.387,2.283,2.27,2.27,0,0,0,2.641.423l.851.959a.226.226,0,0,0,.319.019l2.01-1.784a.226.226,0,0,0,.054-.266,1.2,1.2,0,0,1,.234-1.362l2.905-2.905a.226.226,0,0,0,0-.319Zm-5.333,6.149-.822-.926a.226.226,0,0,0-.287-.042,1.821,1.821,0,0,1-2.251-.264,4.684,4.684,0,0,1-1.269-2.074,1.337,1.337,0,0,1,1.78-1.78,4.684,4.684,0,0,1,2.074,1.269,1.821,1.821,0,0,1,.264,2.251.226.226,0,0,0,.042.287l.955.847Zm0,0" transform="translate(-114 -214.189)"/></g></svg>