<svg xmlns="http://www.w3.org/2000/svg" width="22" height="20.625" viewBox="0 0 22 20.625"><defs><style>.a{fill:#293440;}</style></defs><path class="a" d="M0,82.791m.917,0H21.083a.81.81,0,0,1,.917.917h0a.81.81,0,0,1-.917.917H.917A.81.81,0,0,1,0,83.708H0a.81.81,0,0,1,.917-.917ZM9.6,69.13,9.91,67.9a.917.917,0,0,1,.888-.694h.4a.917.917,0,0,1,.889.694L12.4,69.13A11,11,0,0,1,22,80.041c0,.624.04,1.834-.889,1.834s-19.316,0-20.128-.018S0,80.666,0,80.041A11,11,0,0,1,9.6,69.13Zm1.448,10.91q4.944,0,9.882,0h.178a1.123,1.123,0,0,0-.9.5c-.064.1-.065.105-.06.049a4.6,4.6,0,0,0,.013-.472v-.082A9.167,9.167,0,0,0,1.833,80.03c1.447.006,4.705.009,9.218.01ZM11,66.75a1.375,1.375,0,1,1,1.375-1.375A1.375,1.375,0,0,1,11,66.75Z" transform="translate(0 -64)"/></svg>