<svg xmlns="http://www.w3.org/2000/svg" width="22" height="27.133" viewBox="0 0 22 27.133"><defs><style>.a{fill:#293440;}</style></defs><path class="a" d="M149.267,64.067h-1.65V43.533a2.571,2.571,0,0,0,2.2-2.567A2.506,2.506,0,0,0,147.25,38.4h-16.5a2.506,2.506,0,0,0-2.567,2.567,2.571,2.571,0,0,0,2.2,2.567V64.067h-1.65a.733.733,0,1,0,0,1.467h20.533a.733.733,0,1,0,0-1.467Zm-8.25,0h-4.033v-1.65a2.017,2.017,0,0,1,4.033,0Zm4.95-8.25H142.3V52.7h3.667Zm-8.8-3.117h3.667v3.117h-3.667Zm0-4.583h3.667v3.117h-3.667V48.117Zm0-4.583h3.667V46.65h-3.667Zm8.8,7.7H142.3V48.117h3.667ZM142.3,46.65V43.533h3.667V46.65Zm-12.65-5.683a1.183,1.183,0,0,1,1.1-1.1h16.5a1.1,1.1,0,0,1,0,2.2h-16.5A1.183,1.183,0,0,1,129.65,40.967Zm2.383,2.567H135.7V46.65h-3.667Zm0,4.583H135.7v3.117h-3.667Zm0,4.583H135.7v3.117h-3.667Zm3.667,4.583h10.267v6.783h-3.483v-1.65A3.481,3.481,0,0,0,139,58.933a3.606,3.606,0,0,0-3.483,3.483v1.65h-3.483V57.283Z" transform="translate(-128 -38.4)"/></svg>